<svg width="42" height="42" viewBox="0 0 42 42" fill="none" xmlns="http://www.w3.org/2000/svg">
<g filter="url(#filter0_dddd_10554_580)">
<g clip-path="url(#clip0_10554_580)">
<rect x="4" y="1.03705" width="32" height="32" rx="9.62963" fill="url(#paint0_linear_10554_580)"/>
<path d="M37.1852 23.9259L2.96301 4.2963V31.1111H37.1852V23.9259Z" fill="url(#paint1_linear_10554_580)"/>
<path d="M37.1852 26.8889L2.96301 7.25928V34.0741H37.1852V26.8889Z" fill="url(#paint2_linear_10554_580)"/>
<g filter="url(#filter1_dddd_10554_580)">
<path d="M29.4815 17.263V15.3128C29.4815 15.1507 29.3956 15.0016 29.2549 14.9212L27.8469 14.1121C27.7114 14.0343 27.6255 13.8917 27.6203 13.7361C27.5799 12.4407 26.9182 11.4579 25.9387 10.8951L21.6835 8.44832C20.6428 7.85056 19.3599 7.85056 18.3192 8.44832L14.4495 10.6708C14.3088 10.7512 14.1356 10.7512 13.9949 10.6708L13.2069 10.2183C12.9034 10.0445 12.5257 10.2623 12.5257 10.6098V12.56C12.5257 12.7221 12.6117 12.8712 12.7523 12.9516L17.3618 15.6007C17.5025 15.6811 17.5885 15.8302 17.5885 15.9923V18.3911C17.5885 18.7191 17.7643 19.0238 18.0509 19.1872L19.537 20.0404C19.8222 20.2051 20.1752 20.2051 20.4605 20.0404L22.1745 19.0562C22.2423 19.0148 22.2918 18.9681 22.3269 18.9201C22.4624 18.7334 22.719 18.6802 22.9196 18.7956L24.5998 19.7616C24.8316 19.8952 24.8981 20.1973 24.7431 20.4164C24.6206 20.5902 24.4604 20.738 24.2703 20.8469L20.7431 22.8736C20.5178 23.0033 20.2599 23.072 19.9981 23.072C19.7376 23.072 19.481 23.0033 19.2544 22.8736L15.7298 20.8482C15.2713 20.5837 14.9848 20.0923 14.9848 19.5658V16.0363C14.9848 15.8743 14.8988 15.7251 14.7582 15.6448L11.1998 13.5999C10.8976 13.4262 10.5186 13.6427 10.5186 13.9915V15.9417C10.5186 16.1038 10.6045 16.2529 10.7452 16.3333L12.1519 17.1424C12.2925 17.2228 12.3785 17.3719 12.3785 17.534V19.9834C12.3785 21.1789 13.0206 22.2849 14.0613 22.8827L18.3179 25.3295C19.3586 25.9272 20.6415 25.9272 21.6822 25.3295L25.9374 22.8827C26.5665 22.5209 27.0498 21.9737 27.3337 21.3332C27.5187 20.9144 27.619 20.4553 27.619 19.9834V18.7619C27.619 18.5998 27.533 18.4507 27.3923 18.3703L17.509 12.691C17.2055 12.5172 17.2055 12.0815 17.509 11.9078L19.2557 10.9042C19.4823 10.7745 19.7389 10.7058 19.9994 10.7058C20.2612 10.7058 20.5191 10.7745 20.7444 10.9042L24.2716 12.9309C24.7313 13.1954 25.0153 13.6868 25.0153 14.2132V15.2194C25.0153 15.3815 25.1012 15.5306 25.2419 15.611L28.799 17.6559C29.1025 17.8296 29.4815 17.6118 29.4815 17.263Z" fill="#2CC197"/>
</g>
</g>
</g>
<defs>
<filter id="filter0_dddd_10554_580" x="-1.62963" y="1.12653e-05" width="43.2593" height="52.7407" filterUnits="userSpaceOnUse" color-interpolation-filters="sRGB">
<feFlood flood-opacity="0" result="BackgroundImageFix"/>
<feColorMatrix in="SourceAlpha" type="matrix" values="0 0 0 0 0 0 0 0 0 0 0 0 0 0 0 0 0 0 127 0" result="hardAlpha"/>
<feOffset dy="0.888889"/>
<feGaussianBlur stdDeviation="0.962963"/>
<feColorMatrix type="matrix" values="0 0 0 0 0 0 0 0 0 0 0 0 0 0 0 0 0 0 0.1 0"/>
<feBlend mode="normal" in2="BackgroundImageFix" result="effect1_dropShadow_10554_580"/>
<feColorMatrix in="SourceAlpha" type="matrix" values="0 0 0 0 0 0 0 0 0 0 0 0 0 0 0 0 0 0 127 0" result="hardAlpha"/>
<feOffset dy="3.55556"/>
<feGaussianBlur stdDeviation="1.77778"/>
<feColorMatrix type="matrix" values="0 0 0 0 0 0 0 0 0 0 0 0 0 0 0 0 0 0 0.09 0"/>
<feBlend mode="normal" in2="effect1_dropShadow_10554_580" result="effect2_dropShadow_10554_580"/>
<feColorMatrix in="SourceAlpha" type="matrix" values="0 0 0 0 0 0 0 0 0 0 0 0 0 0 0 0 0 0 127 0" result="hardAlpha"/>
<feOffset dy="7.85185"/>
<feGaussianBlur stdDeviation="2.37037"/>
<feColorMatrix type="matrix" values="0 0 0 0 0 0 0 0 0 0 0 0 0 0 0 0 0 0 0.05 0"/>
<feBlend mode="normal" in2="effect2_dropShadow_10554_580" result="effect3_dropShadow_10554_580"/>
<feColorMatrix in="SourceAlpha" type="matrix" values="0 0 0 0 0 0 0 0 0 0 0 0 0 0 0 0 0 0 127 0" result="hardAlpha"/>
<feOffset dy="14.0741"/>
<feGaussianBlur stdDeviation="2.81481"/>
<feColorMatrix type="matrix" values="0 0 0 0 0 0 0 0 0 0 0 0 0 0 0 0 0 0 0.01 0"/>
<feBlend mode="normal" in2="effect3_dropShadow_10554_580" result="effect4_dropShadow_10554_580"/>
<feBlend mode="normal" in="SourceGraphic" in2="effect4_dropShadow_10554_580" result="shape"/>
</filter>
<filter id="filter1_dddd_10554_580" x="7.11115" y="7.40741" width="25.7778" height="30.0741" filterUnits="userSpaceOnUse" color-interpolation-filters="sRGB">
<feFlood flood-opacity="0" result="BackgroundImageFix"/>
<feColorMatrix in="SourceAlpha" type="matrix" values="0 0 0 0 0 0 0 0 0 0 0 0 0 0 0 0 0 0 127 0" result="hardAlpha"/>
<feOffset dy="0.592593"/>
<feGaussianBlur stdDeviation="0.592593"/>
<feColorMatrix type="matrix" values="0 0 0 0 0 0 0 0 0 0 0 0 0 0 0 0 0 0 0.1 0"/>
<feBlend mode="normal" in2="BackgroundImageFix" result="effect1_dropShadow_10554_580"/>
<feColorMatrix in="SourceAlpha" type="matrix" values="0 0 0 0 0 0 0 0 0 0 0 0 0 0 0 0 0 0 127 0" result="hardAlpha"/>
<feOffset dy="2.07407"/>
<feGaussianBlur stdDeviation="1.03704"/>
<feColorMatrix type="matrix" values="0 0 0 0 0 0 0 0 0 0 0 0 0 0 0 0 0 0 0.09 0"/>
<feBlend mode="normal" in2="effect1_dropShadow_10554_580" result="effect2_dropShadow_10554_580"/>
<feColorMatrix in="SourceAlpha" type="matrix" values="0 0 0 0 0 0 0 0 0 0 0 0 0 0 0 0 0 0 127 0" result="hardAlpha"/>
<feOffset dy="4.74074"/>
<feGaussianBlur stdDeviation="1.40741"/>
<feColorMatrix type="matrix" values="0 0 0 0 0 0 0 0 0 0 0 0 0 0 0 0 0 0 0.05 0"/>
<feBlend mode="normal" in2="effect2_dropShadow_10554_580" result="effect3_dropShadow_10554_580"/>
<feColorMatrix in="SourceAlpha" type="matrix" values="0 0 0 0 0 0 0 0 0 0 0 0 0 0 0 0 0 0 127 0" result="hardAlpha"/>
<feOffset dy="8.2963"/>
<feGaussianBlur stdDeviation="1.7037"/>
<feColorMatrix type="matrix" values="0 0 0 0 0 0 0 0 0 0 0 0 0 0 0 0 0 0 0.01 0"/>
<feBlend mode="normal" in2="effect3_dropShadow_10554_580" result="effect4_dropShadow_10554_580"/>
<feBlend mode="normal" in="SourceGraphic" in2="effect4_dropShadow_10554_580" result="shape"/>
</filter>
<linearGradient id="paint0_linear_10554_580" x1="16.8889" y1="-1.85184" x2="39.3076" y2="25.4196" gradientUnits="userSpaceOnUse">
<stop stop-color="#2EA98D"/>
<stop offset="1" stop-color="#124338"/>
</linearGradient>
<linearGradient id="paint1_linear_10554_580" x1="17.0371" y1="3.55556" x2="32.5926" y2="31.1111" gradientUnits="userSpaceOnUse">
<stop stop-color="#2EA98D"/>
<stop offset="1" stop-color="#124338"/>
</linearGradient>
<linearGradient id="paint2_linear_10554_580" x1="17.0371" y1="6.51855" x2="32.5926" y2="34.0741" gradientUnits="userSpaceOnUse">
<stop stop-color="#2EA98D"/>
<stop offset="1" stop-color="#124338"/>
</linearGradient>
<clipPath id="clip0_10554_580">
<rect x="4" y="1.03705" width="32" height="32" rx="9.62963" fill="white"/>
</clipPath>
</defs>
</svg>
